# xmcd
#
# Track frame offsets: 
#        150
#        12922
#        22650
#        31725
#        46897
#        58700
#        70025
#        83400
#        99087
#        109672
#        119675
#        129762
#
# Disc length: 1893 seconds
#
# Revision: 1
# Processed by: cddbd v1.5PL3 Copyright (c) Steve Scherf et al.
# Submitted via: ExactAudioCopy v0.95a1
#
DISCID=7f07630c
DTITLE=Patsy Cline - The Patsy Cline Collection [CD1]
DYEAR=1997
DGENRE=Country
TTITLE0=I Fall To Pieces
TTITLE1=True Love
TTITLE2=Walkin' After Midnight
TTITLE3=The Wayward Wind
TTITLE4=When I Get Through With You (You'll Love Me Too)
TTITLE5=Half As Much
TTITLE6=I Can't Help It (If I'm Still In Love With You)
TTITLE7=Why Can't He Be You
TTITLE8=San Antonio Rose
TTITLE9=Have You Ever Been Lonely (Have You Ever Been Blue)
TTITLE10=Foolin' Around
TTITLE11=Crazy
EXTD=
EXTT0=
EXTT1=
EXTT2=
EXTT3=
EXTT4=
EXTT5=
EXTT6=
EXTT7=
EXTT8=
EXTT9=
EXTT10=
EXTT11=
PLAYORDER=
